<?xml version="1.0" standalone="no"?>
<!DOCTYPE svg PUBLIC "-//W3C//DTD SVG 20010904//EN"
 "http://www.w3.org/TR/2001/REC-SVG-20010904/DTD/svg10.dtd">
<svg version="1.0" xmlns="http://www.w3.org/2000/svg"
 width="32" height="32" viewBox="0 0 200.000000 200.000000"
 preserveAspectRatio="xMidYMid meet">

<g transform="translate(0.000000,200.000000) scale(0.100000,-0.100000)"
fill="#8b5cf6" stroke="none">
<path d="M979 1941 c8 -5 11 -16 8 -24 -7 -19 -70 -34 -75 -18 -7 21 -31 11
-47 -19 -8 -16 -15 -49 -15 -74 0 -25 -6 -50 -12 -56 -17 -14 -228 -138 -326
-191 l-79 -43 -36 17 c-45 22 -68 22 -60 1 7 -20 -13 -34 -49 -34 -18 0 -28 5
-28 15 0 43 -66 -27 -76 -80 -11 -62 18 -115 89 -160 20 -13 25 -147 13 -352
l-9 -142 28 -24 28 -24 -28 -7 c-22 -6 -32 -3 -42 10 -12 17 -14 16 -38 -6
-69 -65 -51 -181 35 -225 37 -19 80 -19 130 1 l40 16 97 -52 c96 -51 271 -159
306 -188 11 -10 17 -29 17 -55 0 -105 118 -172 207 -117 43 26 63 59 71 117 7
48 8 49 104 113 53 36 145 92 204 124 101 57 108 59 138 47 17 -7 41 -15 53
-18 28 -6 76 5 69 16 -3 4 6 19 19 31 26 25 32 21 15 -10 -18 -34 17 -12 40
25 21 34 27 108 11 134 -7 10 -12 8 -25 -10 -12 -18 -18 -21 -28 -11 -9 9 -8
12 5 12 14 0 15 4 7 26 -6 14 -8 29 -5 34 3 5 -3 11 -12 14 -23 8 -47 57 -32
67 8 4 8 38 0 120 -14 147 -18 289 -8 289 4 0 7 13 7 28 0 17 9 37 21 48 22
19 22 19 10 -4 -12 -22 -11 -23 8 -12 43 22 75 100 62 147 -5 15 -14 27 -21
25 -16 -4 -30 16 -30 44 0 25 -37 44 -83 43 -18 0 -26 -3 -19 -6 23 -9 12 -32
-23 -43 -35 -12 -60 -6 -50 11 4 5 -2 9 -11 9 -23 0 -364 187 -414 227 -2 3
-7 28 -10 56 -4 37 -9 51 -19 49 -18 -4 -31 16 -31 46 0 17 -9 27 -35 38 -39
16 -90 20 -66 5z m61 -106 c0 -8 -4 -15 -10 -15 -5 0 -10 7 -10 15 0 8 5 15
10 15 6 0 10 -7 10 -15z m-126 -151 c19 -10 37 -26 40 -38 9 -34 7 -74 -4 -81
-6 -4 -8 -16 -4 -27 5 -16 2 -19 -13 -14 -10 3 -29 -3 -42 -13 -19 -14 -25
-30 -29 -73 l-4 -55 -62 -34 c-71 -39 -85 -42 -109 -17 -22 22 -43 23 -51 3
-4 -12 -19 -15 -65 -12 -77 4 -101 24 -101 83 0 41 2 43 68 87 37 24 123 77
192 116 69 40 129 77 135 82 12 11 8 12 49 -7z m344 -81 c81 -48 163 -96 182
-106 57 -31 70 -47 70 -87 0 -25 -8 -45 -25 -64 -27 -29 -39 -31 -75 -11 -31
18 -71 19 -68 3 2 -8 -16 -15 -47 -19 -39 -5 -56 -3 -80 12 -16 10 -47 27 -67
39 -35 19 -38 24 -38 65 0 32 -4 45 -14 45 -8 0 -18 9 -21 21 -4 11 -20 36
-36 54 -26 29 -29 39 -23 69 6 37 56 79 82 70 8 -2 80 -43 160 -91z m247 -98
l20 -16 -20 10 c-11 5 -29 17 -40 26 l-20 16 20 -10 c11 -5 29 -17 40 -26z
m240 -55 c3 -5 1 -10 -4 -10 -6 0 -11 5 -11 10 0 6 2 10 4 10 3 0 8 -4 11 -10z
m-1365 -10 c0 -5 -4 -10 -10 -10 -5 0 -10 5 -10 10 0 6 5 10 10 10 6 0 10 -4
10 -10z m1321 -3 c-1 -12 -15 -9 -19 4 -3 6 1 10 8 8 6 -3 11 -8 11 -12z
m-786 -97 c37 -25 99 -25 144 -1 l34 18 61 -42 c57 -39 61 -45 68 -89 8 -57
28 -90 68 -111 17 -9 30 -23 30 -33 0 -9 2 -54 3 -99 2 -77 1 -83 -21 -92 -32
-15 -39 -14 -16 3 10 8 16 17 13 20 -3 4 -23 -12 -43 -35 -35 -38 -38 -45 -34
-90 3 -46 1 -50 -22 -56 -14 -3 -44 -18 -67 -34 -43 -28 -80 -29 -96 -2 -9 15
-37 18 -37 3 0 -5 -11 -10 -25 -10 -14 0 -25 -4 -25 -10 0 -5 -7 -10 -16 -10
-8 0 -12 5 -9 10 8 13 -8 13 -22 -1 -8 -8 -26 -1 -64 25 -30 20 -59 36 -66 36
-13 0 -21 26 -21 71 0 15 -7 35 -16 45 -10 11 -26 30 -37 44 -14 17 -22 21
-25 13 -13 -31 -19 -7 -18 70 2 134 2 137 22 137 38 0 89 82 78 126 -5 18 5
28 54 58 33 21 60 41 60 47 0 14 12 11 45 -11z m-426 -64 c12 -13 21 -27 19
-32 -8 -29 16 -85 45 -109 18 -14 38 -30 45 -36 9 -8 13 -34 11 -88 -1 -42 1
-85 6 -95 7 -17 5 -18 -17 -13 -20 5 -33 0 -57 -22 -26 -24 -31 -37 -31 -73 0
-38 -4 -46 -25 -56 -35 -16 -110 -15 -124 1 -11 15 -9 512 3 524 3 4 25 10 49
14 23 3 45 7 48 8 3 0 16 -10 28 -23z m1114 6 c16 -7 18 -27 18 -259 0 -149 4
-255 9 -258 6 -4 10 -12 10 -20 0 -10 -14 -12 -62 -8 -81 6 -108 19 -108 52 0
41 -11 71 -26 71 -7 0 -21 14 -30 31 -11 23 -19 28 -27 20 -20 -20 -22 -12
-21 73 2 99 9 136 28 136 26 0 76 68 76 105 0 18 7 41 16 49 16 17 84 21 117
8z m-1306 -484 c-2 -13 -4 -3 -4 22 0 25 2 35 4 23 2 -13 2 -33 0 -45z m503
-123 c46 -30 68 -49 64 -59 -12 -32 16 -94 57 -127 40 -31 41 -34 37 -80 -4
-40 -2 -48 14 -52 10 -3 18 -10 18 -16 0 -14 -17 -14 -25 -1 -4 6 -10 8 -14 6
-22 -14 -65 -13 -91 2 -16 9 -73 43 -127 75 -277 162 -276 161 -266 211 5 24
18 46 33 57 23 17 30 17 84 4 55 -13 62 -12 95 5 20 11 39 19 43 20 4 0 39
-20 78 -45z m478 29 c24 -16 104 -22 109 -8 2 5 23 8 48 6 53 -5 75 -28 75
-80 0 -38 -20 -59 -85 -93 -22 -12 -111 -64 -198 -116 -143 -85 -172 -98 -172
-74 0 3 -10 17 -22 31 -35 36 -30 73 16 117 47 47 61 72 61 115 0 30 7 37 68
75 37 23 69 42 72 43 3 0 16 -7 28 -16z m300 4 c-3 -7 -13 -15 -24 -17 -16 -3
-17 -1 -5 13 16 19 34 21 29 4z m-1138 -19 c0 -6 -4 -7 -10 -4 -5 3 -10 11
-10 16 0 6 5 7 10 4 6 -3 10 -11 10 -16z m1260 -24 c0 -8 -4 -15 -9 -15 -13 0
-22 16 -14 24 11 11 23 6 23 -9z m-1320 -5 c0 -5 -4 -10 -10 -10 -5 0 -10 5
-10 10 0 6 5 10 10 10 6 0 10 -4 10 -10z m710 -390 c0 -5 -4 -10 -10 -10 -5 0
-10 5 -10 10 0 6 5 10 10 10 6 0 10 -4 10 -10z m-50 -10 c0 -5 -2 -10 -4 -10
-3 0 -8 5 -11 10 -3 6 -1 10 4 10 6 0 11 -4 11 -10z m40 -119 c-9 -18 -40 -37
-40 -25 0 3 8 16 18 29 19 26 37 23 22 -4z"/>
</g>
</svg>
